# xmcd CD database file
#
# Track frame offsets:
#	150
#	40172
#	60755
#	71052
#	83410
#	107297
#	134572
#	161892
#	177100
#	209432
#
# Disc length: 3359 seconds
#
# Revision: 0
# Processed by: cddbd v1.5PL3 Copyright (c) Steve Scherf et al.
# Submitted via: CDex 1.50
#
DISCID=7e0d1d0a
DTITLE=chris hinze - seas of innocence
DYEAR=1988
DGENRE=New Age
TTITLE0=seas of innocence
TTITLE1=the new world - suite part 1   abandoned
TTITLE2=new expectations
TTITLE3=there's still more to life
TTITLE4=return to the spirit
TTITLE5=the story told
TTITLE6=the new world - suite part 1   the promise
TTITLE7=waiting for the dawn
TTITLE8=tribe's tribunal
TTITLE9=forever will be the tide
EXTD=YEAR: 1988
EXTT0=
EXTT1=
EXTT2=
EXTT3=
EXTT4=
EXTT5=
EXTT6=
EXTT7=
EXTT8=
EXTT9=
PLAYORDER=
